<svg xmlns="http://www.w3.org/2000/svg" xmlns:xlink="http://www.w3.org/1999/xlink" width="512" zoomAndPan="magnify" viewBox="0 0 384 383.999986" height="512" preserveAspectRatio="xMidYMid meet" version="1.0"><defs><g/><clipPath id="58d6d9c0a1"><path d="M 17.226562 33.332031 L 366.628906 33.332031 L 366.628906 380.039062 L 17.226562 380.039062 Z M 17.226562 33.332031 " clip-rule="nonzero"/></clipPath><clipPath id="88dabfb3d4"><path d="M 41.222656 33.332031 L 342.757812 33.332031 C 356.011719 33.332031 366.757812 44.074219 366.757812 57.328125 L 366.757812 356.160156 C 366.757812 369.414062 356.011719 380.160156 342.757812 380.160156 L 41.222656 380.160156 C 27.96875 380.160156 17.226562 369.414062 17.226562 356.160156 L 17.226562 57.328125 C 17.226562 44.074219 27.96875 33.332031 41.222656 33.332031 Z M 41.222656 33.332031 " clip-rule="nonzero"/></clipPath><clipPath id="bc7f4423ab"><path d="M 17.226562 3.828125 L 366.78125 3.828125 L 366.78125 350.675781 L 17.226562 350.675781 Z M 17.226562 3.828125 " clip-rule="nonzero"/></clipPath><clipPath id="96bd994dd8"><path d="M 41.226562 3.828125 L 342.773438 3.828125 C 356.03125 3.828125 366.773438 14.574219 366.773438 27.828125 L 366.773438 326.675781 C 366.773438 339.933594 356.03125 350.675781 342.773438 350.675781 L 41.226562 350.675781 C 27.96875 350.675781 17.226562 339.933594 17.226562 326.675781 L 17.226562 27.828125 C 17.226562 14.574219 27.96875 3.828125 41.226562 3.828125 Z M 41.226562 3.828125 " clip-rule="nonzero"/></clipPath><clipPath id="ddf71dde33"><path d="M 17.226562 3.835938 L 366.628906 3.835938 L 366.628906 350.546875 L 17.226562 350.546875 Z M 17.226562 3.835938 " clip-rule="nonzero"/></clipPath><clipPath id="d931cc2418"><path d="M 41.222656 3.835938 L 342.757812 3.835938 C 356.011719 3.835938 366.757812 14.582031 366.757812 27.835938 L 366.757812 326.667969 C 366.757812 339.921875 356.011719 350.664062 342.757812 350.664062 L 41.222656 350.664062 C 27.96875 350.664062 17.226562 339.921875 17.226562 326.667969 L 17.226562 27.835938 C 17.226562 14.582031 27.96875 3.835938 41.222656 3.835938 Z M 41.222656 3.835938 " clip-rule="nonzero"/></clipPath></defs><g clip-path="url(#58d6d9c0a1)"><g clip-path="url(#88dabfb3d4)"><path stroke-linecap="butt" transform="matrix(2.687729, 0, 0, 2.687729, 17.225257, 33.330166)" fill="none" stroke-linejoin="miter" d="M 8.928503 0.000694046 L 121.118053 0.000694046 C 126.049318 0.000694046 130.047523 3.997446 130.047523 8.928711 L 130.047523 120.112533 C 130.047523 125.043798 126.049318 129.042004 121.118053 129.042004 L 8.928503 129.042004 C 3.997237 129.042004 0.000485623 125.043798 0.000485623 120.112533 L 0.000485623 8.928711 C 0.000485623 3.997446 3.997237 0.000694046 8.928503 0.000694046 Z M 8.928503 0.000694046 " stroke="#000000" stroke-width="3.348551" stroke-opacity="1" stroke-miterlimit="4"/></g></g><g clip-path="url(#bc7f4423ab)"><g clip-path="url(#96bd994dd8)"><path fill="#2151f4" d="M 17.226562 3.828125 L 366.78125 3.828125 L 366.78125 350.675781 L 17.226562 350.675781 Z M 17.226562 3.828125 " fill-opacity="1" fill-rule="nonzero"/></g></g><g clip-path="url(#ddf71dde33)"><g clip-path="url(#d931cc2418)"><path stroke-linecap="butt" transform="matrix(2.687729, 0, 0, 2.687729, 17.225257, 3.836473)" fill="none" stroke-linejoin="miter" d="M 8.928503 -0.000199272 L 121.118053 -0.000199272 C 126.049318 -0.000199272 130.047523 3.998006 130.047523 8.929271 L 130.047523 120.113093 C 130.047523 125.044358 126.049318 129.04111 121.118053 129.04111 L 8.928503 129.04111 C 3.997237 129.04111 0.000485623 125.044358 0.000485623 120.113093 L 0.000485623 8.929271 C 0.000485623 3.998006 3.997237 -0.000199272 8.928503 -0.000199272 Z M 8.928503 -0.000199272 " stroke="#000000" stroke-width="3.348551" stroke-opacity="1" stroke-miterlimit="4"/></g></g><path stroke-linecap="butt" transform="matrix(14.859232, 0, 0, 14.859232, 85.315356, -9.974296)" fill="none" stroke-linejoin="miter" d="M 3.777447 12.449231 C 3.679654 11.199219 3.296895 9.648468 2.222752 8.816441 C 2.558718 8.703138 2.769551 8.511759 2.992213 8.222587 C 3.343689 7.761752 3.441481 7.183671 3.296895 6.687609 C 3.039006 5.777243 1.586048 5.167878 0.734305 5.519617 C 0.558699 5.601636 0.527415 5.710996 0.511642 5.824299 C 0.433566 6.480457 0.496132 7.121104 0.511642 7.777262 C 0.511642 7.984414 0.527415 8.175794 0.527415 8.382683 L 0.574209 10.847744 L 0.640718 14.878803 C 0.624945 15.183485 0.609435 15.50394 0.703022 15.777339 C 0.754021 16.015512 0.976684 16.000002 1.265593 16.000002 C 2.398359 16.046795 2.816344 15.60147 3.199103 14.992105 C 3.648371 14.304665 3.855523 13.425844 3.777447 12.449231 Z M 2.718814 7.070368 C 2.785061 7.406333 2.656248 7.679732 2.414132 7.921848 C 2.113393 8.207077 1.710918 8.304607 1.230366 8.304607 L 1.230366 7.648449 C 1.214856 7.136614 1.214856 6.640553 1.168063 6.128981 C 1.824221 5.999905 2.593681 6.289077 2.718814 7.070368 Z M 1.390725 15.328071 C 1.390725 15.167975 1.390725 15.023389 1.374952 14.847782 C 1.374952 14.769443 1.359442 14.671913 1.359442 14.593837 L 1.359442 13.953189 C 1.343669 13.726583 1.343669 13.503921 1.343669 13.296768 C 1.312386 12.449231 1.296876 11.585921 1.281366 10.753894 C 1.265593 10.335909 1.265593 9.921867 1.246139 9.488372 L 1.246139 9.007821 C 2.398359 9.503882 2.8634 11.054633 3.007723 12.175832 C 3.168082 13.343825 2.847627 15.183485 1.390725 15.328071 Z M 9.13528 10.320399 C 9.103996 9.519655 9.15079 8.734422 9.15079 7.921848 C 9.15079 7.183671 9.13528 6.351644 9.02592 5.63292 C 8.975183 5.425767 8.416556 5.406314 8.334536 5.56641 C 8.127383 6.289077 8.369762 7.327994 8.350046 8.129 C 8.334536 8.992311 8.318763 9.871131 8.318763 10.734441 C 8.318763 10.734441 8.334536 11.406372 8.08059 12.929783 C 7.967287 13.601451 7.377376 16.128815 6.401026 15.183485 C 6.049288 14.847782 5.904702 14.207135 5.807172 13.6953 C 5.678359 12.976576 5.615792 12.238399 5.584509 11.503902 C 5.615792 9.679751 5.631303 7.968641 5.631303 5.953112 C 5.631303 5.45705 4.897068 5.488334 4.881295 5.968622 C 4.846332 6.976518 4.830559 7.984414 4.830559 8.976538 C 4.736972 10.398476 4.721199 11.742074 4.865785 13.007859 C 4.990655 14.078059 5.424413 16.480553 7.166543 16.046795 C 7.807191 15.886699 8.256459 15.312561 8.576652 14.320438 C 8.768031 13.71081 8.95941 13.054653 9.02592 12.207115 C 9.057203 11.777301 9.13528 10.335909 9.13528 10.320399 Z M 13.870341 10.480495 C 13.889794 9.648468 13.854568 8.816441 13.839058 7.984414 C 13.823548 7.199181 13.889794 6.335871 13.792264 5.585863 C 13.776491 5.441277 13.569602 5.390541 13.409243 5.425767 C 13.296203 5.441277 13.19841 5.488334 13.1829 5.585863 C 13.089051 5.968622 13.07354 6.687609 13.089051 7.183671 L 13.089051 7.695242 C 13.089051 7.824318 13.089051 7.953131 13.07354 8.078001 C 12.944465 8.464966 12.655555 8.671855 12.241513 8.671855 C 11.936831 8.671855 11.569583 8.574325 11.37426 8.367173 C 11.089031 8.062491 10.815632 7.503863 10.878199 5.742279 C 10.897652 5.265671 10.174985 5.230445 10.143701 5.726506 C 10.014888 7.742298 10.350854 8.527269 10.831142 8.992311 C 11.217844 9.359296 11.839039 9.535165 12.40161 9.472599 C 12.671065 9.441316 12.928954 9.359296 13.135844 9.214973 L 13.135844 9.793054 C 13.120334 10.929763 13.104561 11.793074 13.104561 12.929783 C 13.07354 13.503921 13.217864 14.414024 12.897671 14.929802 C 12.721802 15.167975 12.41712 15.296788 12.128211 15.246051 C 11.839039 15.214768 11.678942 14.960822 11.409487 14.878803 C 11.233617 14.832009 11.057748 14.976595 11.057748 15.167975 C 11.057748 15.777339 11.905548 16.046795 12.41712 16.000002 C 13.007031 15.937435 13.487582 15.51945 13.694472 14.960822 C 13.921078 14.273381 13.823548 13.472638 13.839058 12.753914 Z M 13.870341 10.480495 " stroke="#000000" stroke-width="1.2" stroke-opacity="1" stroke-miterlimit="4"/><g fill="#ffffff" fill-opacity="1"><g transform="translate(85.315356, 227.773414)"><g><path d="M 56.109375 -52.78125 C 54.683594 -71.324219 48.976562 -94.386719 33.046875 -106.75 C 38.039062 -108.414062 41.128906 -111.265625 44.457031 -115.546875 C 49.6875 -122.441406 51.117188 -131 48.976562 -138.371094 C 45.171875 -151.921875 23.535156 -160.957031 10.9375 -155.726562 C 8.320312 -154.535156 7.84375 -152.871094 7.609375 -151.207031 C 6.417969 -141.460938 7.371094 -131.949219 7.609375 -122.203125 C 7.609375 -119.113281 7.84375 -116.257812 7.84375 -113.167969 L 8.558594 -76.554688 L 9.511719 -16.640625 C 9.273438 -12.125 9.035156 -7.371094 10.460938 -3.328125 C 11.175781 0.238281 14.503906 0 18.78125 0 C 35.664062 0.714844 41.84375 -5.945312 47.550781 -14.976562 C 54.207031 -25.203125 57.296875 -38.277344 56.109375 -52.78125 Z M 40.417969 -132.664062 C 41.367188 -127.671875 39.464844 -123.628906 35.898438 -120.0625 C 31.382812 -115.78125 25.4375 -114.355469 18.304688 -114.355469 L 18.304688 -124.105469 C 18.070312 -131.710938 18.070312 -139.082031 17.355469 -146.691406 C 27.101562 -148.59375 38.515625 -144.3125 40.417969 -132.664062 Z M 20.683594 -9.984375 C 20.683594 -12.363281 20.683594 -14.503906 20.445312 -17.117188 C 20.445312 -18.304688 20.207031 -19.734375 20.207031 -20.921875 L 20.207031 -30.433594 C 19.972656 -33.761719 19.972656 -37.089844 19.972656 -40.179688 C 19.496094 -52.78125 19.257812 -65.617188 19.019531 -77.980469 C 18.78125 -84.164062 18.78125 -90.34375 18.542969 -96.761719 L 18.542969 -103.894531 C 35.664062 -96.527344 42.558594 -73.464844 44.695312 -56.820312 C 47.074219 -39.464844 42.320312 -12.125 20.683594 -9.984375 Z M 20.683594 -9.984375 "/></g></g></g><g fill="#ffffff" fill-opacity="1"><g transform="translate(148.794043, 227.773414)"><g><path d="M 72.273438 -84.402344 C 71.800781 -96.289062 72.511719 -107.9375 72.511719 -120.0625 C 72.511719 -131 72.273438 -143.363281 70.609375 -154.058594 C 69.898438 -157.152344 61.578125 -157.390625 60.386719 -155.011719 C 57.296875 -144.3125 60.863281 -128.859375 60.625 -116.972656 C 60.386719 -104.132812 60.148438 -91.058594 60.148438 -78.21875 C 60.148438 -78.21875 60.386719 -68.234375 56.582031 -45.648438 C 54.917969 -35.664062 46.125 1.902344 31.621094 -12.125 C 26.390625 -17.117188 24.25 -26.628906 22.824219 -34.234375 C 20.921875 -44.933594 19.972656 -55.871094 19.496094 -66.808594 C 19.972656 -93.910156 20.207031 -119.347656 20.207031 -149.304688 C 20.207031 -156.675781 9.273438 -156.199219 9.035156 -149.066406 C 8.558594 -134.089844 8.320312 -119.113281 8.320312 -104.371094 C 6.894531 -83.210938 6.65625 -63.242188 8.796875 -44.457031 C 10.699219 -28.53125 17.117188 7.132812 43.03125 0.714844 C 52.542969 -1.664062 59.199219 -10.222656 63.953125 -24.964844 C 66.808594 -33.996094 69.660156 -43.746094 70.609375 -56.347656 C 71.085938 -62.765625 72.273438 -84.164062 72.273438 -84.402344 Z M 72.273438 -84.402344 "/></g></g></g><g fill="#ffffff" fill-opacity="1"><g transform="translate(228.439762, 227.773414)"><g><path d="M 63.003906 -82.023438 C 63.242188 -94.386719 62.765625 -106.75 62.527344 -119.113281 C 62.289062 -130.761719 63.242188 -143.601562 61.8125 -154.773438 C 61.578125 -156.914062 58.484375 -157.625 56.109375 -157.152344 C 54.445312 -156.914062 53.019531 -156.199219 52.78125 -154.773438 C 51.351562 -149.066406 51.117188 -138.371094 51.351562 -131 L 51.351562 -123.390625 C 51.351562 -121.488281 51.351562 -119.585938 51.117188 -117.683594 C 49.214844 -111.980469 44.933594 -108.886719 38.753906 -108.886719 C 34.234375 -108.886719 28.765625 -110.316406 25.914062 -113.40625 C 21.636719 -117.921875 17.59375 -126.242188 18.542969 -152.394531 C 18.78125 -159.527344 8.082031 -160.003906 7.609375 -152.632812 C 5.707031 -122.679688 10.699219 -111.027344 17.832031 -104.132812 C 23.535156 -98.664062 32.808594 -96.050781 41.128906 -97 C 45.171875 -97.476562 48.976562 -98.664062 52.066406 -100.804688 L 52.066406 -92.246094 C 51.828125 -75.367188 51.589844 -62.527344 51.589844 -45.648438 C 51.117188 -37.089844 53.253906 -23.535156 48.5 -15.929688 C 45.886719 -12.363281 41.367188 -10.460938 37.089844 -11.175781 C 32.808594 -11.648438 30.433594 -15.453125 26.390625 -16.640625 C 23.773438 -17.355469 21.160156 -15.214844 21.160156 -12.363281 C 21.160156 -3.328125 33.761719 0.714844 41.367188 0 C 50.164062 -0.949219 57.296875 -7.132812 60.386719 -15.453125 C 63.714844 -25.675781 62.289062 -37.5625 62.527344 -48.261719 Z M 63.003906 -82.023438 "/></g></g></g></svg>