<svg xmlns="http://www.w3.org/2000/svg" xmlns:xlink="http://www.w3.org/1999/xlink" width="512" zoomAndPan="magnify" viewBox="0 0 384 383.999986" height="512" preserveAspectRatio="xMidYMid meet" version="1.0"><defs><g/></defs><path stroke-linecap="butt" transform="matrix(3.043516, 0, 0, 3.043516, 101.962828, -37.019704)" fill="none" stroke-linejoin="miter" d="M 3.620037 41.343066 C 2.342988 45.509197 4.374715 83.892533 4.374715 88.814626 L 4.374715 95.740208 C 4.374715 98.083818 4.062832 100.636632 4.686597 102.980241 C 5.234637 104.802762 7.786168 104.698802 8.307255 102.980241 C 8.957972 100.740592 8.750051 98.083818 8.750051 95.740208 C 8.750051 93.397883 8.854011 91.158235 8.750051 88.814626 C 8.750051 83.684612 9.71265 44.754519 7.994089 40.692349 C 7.578246 39.624505 3.957588 40.379183 3.620037 41.343066 Z M 9.269854 110.453864 C 8.644806 109.697902 7.682207 109.282059 6.718324 109.282059 C 3.827958 109.282059 3.620037 111.208542 3.620037 113.005394 C 3.098949 114.723955 5.963646 116.520808 7.786168 115.89576 C 10.025816 115.141082 10.884455 112.172425 9.269854 110.453864 Z M 28.258735 41.343066 C 26.98297 45.509197 29.013413 83.892533 29.013413 88.814626 L 29.013413 95.740208 C 29.013413 98.083818 28.701531 100.636632 29.326579 102.980241 C 29.873335 104.802762 32.424866 104.698802 32.945953 102.980241 C 33.59667 100.740592 33.388749 98.083818 33.388749 95.740208 C 33.388749 93.397883 33.49271 91.158235 33.388749 88.814626 C 33.388749 83.684612 34.351348 44.754519 32.632787 40.692349 C 32.216944 39.624505 28.596286 40.379183 28.258735 41.343066 Z M 33.908553 110.453864 C 33.283505 109.697902 32.320905 109.282059 31.357022 109.282059 C 28.466656 109.282059 28.258735 111.208542 28.258735 113.005394 C 27.737648 114.723955 30.602344 116.520808 32.424866 115.89576 C 34.664514 115.141082 35.523153 112.172425 33.908553 110.453864 Z M 52.897433 41.343066 C 51.621668 45.509197 53.652111 83.892533 53.652111 88.814626 L 53.652111 95.740208 C 53.652111 98.083818 53.340229 100.636632 53.965277 102.980241 C 54.512033 104.802762 57.063564 104.698802 57.584651 102.980241 C 58.235368 100.740592 58.027447 98.083818 58.027447 95.740208 C 58.027447 93.397883 58.131408 91.158235 58.027447 88.814626 C 58.027447 83.684612 58.990047 44.754519 57.271485 40.692349 C 56.855642 39.624505 53.234985 40.379183 52.897433 41.343066 Z M 58.547251 110.453864 C 57.922203 109.697902 56.959603 109.282059 55.99572 109.282059 C 53.105355 109.282059 52.897433 111.208542 52.897433 113.005394 C 52.376346 114.723955 55.241042 116.520808 57.063564 115.89576 C 59.303212 115.141082 60.161851 112.172425 58.547251 110.453864 Z M 58.547251 110.453864 " stroke="#000000" stroke-width="12.133371" stroke-opacity="1" stroke-miterlimit="4"/><g fill="#ffffff" fill-opacity="1"><g transform="translate(101.962828, 316.028195)"><g><path d="M 11.039062 -227.234375 C 7.140625 -214.574219 13.308594 -97.710938 13.308594 -82.777344 L 13.308594 -61.679688 C 13.308594 -54.535156 12.335938 -46.746094 14.285156 -39.605469 C 15.90625 -34.085938 23.699219 -34.410156 25.320312 -39.605469 C 27.269531 -46.421875 26.617188 -54.535156 26.617188 -61.679688 C 26.617188 -68.820312 26.945312 -75.636719 26.617188 -82.777344 C 26.617188 -98.359375 29.539062 -216.847656 24.347656 -229.183594 C 23.046875 -232.429688 12.011719 -230.15625 11.039062 -227.234375 Z M 28.242188 -16.878906 C 26.292969 -19.152344 23.371094 -20.449219 20.449219 -20.449219 C 11.6875 -20.449219 11.039062 -14.609375 11.039062 -9.089844 C 9.414062 -3.894531 18.179688 1.625 23.699219 -0.324219 C 30.515625 -2.597656 33.113281 -11.6875 28.242188 -16.878906 Z M 28.242188 -16.878906 "/></g></g></g><g fill="#ffffff" fill-opacity="1"><g transform="translate(176.951261, 316.028195)"><g><path d="M 11.039062 -227.234375 C 7.140625 -214.574219 13.308594 -97.710938 13.308594 -82.777344 L 13.308594 -61.679688 C 13.308594 -54.535156 12.335938 -46.746094 14.285156 -39.605469 C 15.90625 -34.085938 23.699219 -34.410156 25.320312 -39.605469 C 27.269531 -46.421875 26.617188 -54.535156 26.617188 -61.679688 C 26.617188 -68.820312 26.945312 -75.636719 26.617188 -82.777344 C 26.617188 -98.359375 29.539062 -216.847656 24.347656 -229.183594 C 23.046875 -232.429688 12.011719 -230.15625 11.039062 -227.234375 Z M 28.242188 -16.878906 C 26.292969 -19.152344 23.371094 -20.449219 20.449219 -20.449219 C 11.6875 -20.449219 11.039062 -14.609375 11.039062 -9.089844 C 9.414062 -3.894531 18.179688 1.625 23.699219 -0.324219 C 30.515625 -2.597656 33.113281 -11.6875 28.242188 -16.878906 Z M 28.242188 -16.878906 "/></g></g></g><g fill="#ffffff" fill-opacity="1"><g transform="translate(251.939694, 316.028195)"><g><path d="M 11.039062 -227.234375 C 7.140625 -214.574219 13.308594 -97.710938 13.308594 -82.777344 L 13.308594 -61.679688 C 13.308594 -54.535156 12.335938 -46.746094 14.285156 -39.605469 C 15.90625 -34.085938 23.699219 -34.410156 25.320312 -39.605469 C 27.269531 -46.421875 26.617188 -54.535156 26.617188 -61.679688 C 26.617188 -68.820312 26.945312 -75.636719 26.617188 -82.777344 C 26.617188 -98.359375 29.539062 -216.847656 24.347656 -229.183594 C 23.046875 -232.429688 12.011719 -230.15625 11.039062 -227.234375 Z M 28.242188 -16.878906 C 26.292969 -19.152344 23.371094 -20.449219 20.449219 -20.449219 C 11.6875 -20.449219 11.039062 -14.609375 11.039062 -9.089844 C 9.414062 -3.894531 18.179688 1.625 23.699219 -0.324219 C 30.515625 -2.597656 33.113281 -11.6875 28.242188 -16.878906 Z M 28.242188 -16.878906 "/></g></g></g></svg>