<svg xmlns="http://www.w3.org/2000/svg" xmlns:xlink="http://www.w3.org/1999/xlink" width="512" zoomAndPan="magnify" viewBox="0 0 384 383.999986" height="512" preserveAspectRatio="xMidYMid meet" version="1.0"><defs><clipPath id="c2966b436c"><path d="M 19.199219 33.667969 L 364.65625 33.667969 L 364.65625 376.460938 L 19.199219 376.460938 Z M 19.199219 33.667969 " clip-rule="nonzero"/></clipPath><clipPath id="d8ec652231"><path d="M 43.199219 33.667969 L 340.78125 33.667969 C 347.148438 33.667969 353.25 36.195312 357.753906 40.695312 C 362.253906 45.195312 364.78125 51.300781 364.78125 57.667969 L 364.78125 352.578125 C 364.78125 358.945312 362.253906 365.046875 357.753906 369.546875 C 353.25 374.050781 347.148438 376.578125 340.78125 376.578125 L 43.199219 376.578125 C 36.832031 376.578125 30.730469 374.050781 26.230469 369.546875 C 21.726562 365.046875 19.199219 358.945312 19.199219 352.578125 L 19.199219 57.667969 C 19.199219 51.300781 21.726562 45.195312 26.230469 40.695312 C 30.730469 36.195312 36.832031 33.667969 43.199219 33.667969 Z M 43.199219 33.667969 " clip-rule="nonzero"/></clipPath><clipPath id="81ef30d213"><path d="M 19.199219 4.5 L 364.808594 4.5 L 364.808594 347.429688 L 19.199219 347.429688 Z M 19.199219 4.5 " clip-rule="nonzero"/></clipPath><clipPath id="fec623ab9b"><path d="M 43.199219 4.5 L 340.800781 4.5 C 347.164062 4.5 353.269531 7.027344 357.769531 11.53125 C 362.269531 16.03125 364.800781 22.136719 364.800781 28.5 L 364.800781 323.429688 C 364.800781 329.792969 362.269531 335.898438 357.769531 340.398438 C 353.269531 344.898438 347.164062 347.429688 340.800781 347.429688 L 43.199219 347.429688 C 36.835938 347.429688 30.730469 344.898438 26.230469 340.398438 C 21.730469 335.898438 19.199219 329.792969 19.199219 323.429688 L 19.199219 28.5 C 19.199219 22.136719 21.730469 16.03125 26.230469 11.53125 C 30.730469 7.027344 36.835938 4.5 43.199219 4.5 Z M 43.199219 4.5 " clip-rule="nonzero"/></clipPath><clipPath id="46de8902cf"><path d="M 19.199219 4.507812 L 364.65625 4.507812 L 364.65625 347.300781 L 19.199219 347.300781 Z M 19.199219 4.507812 " clip-rule="nonzero"/></clipPath><clipPath id="43f4d5ac4d"><path d="M 43.199219 4.507812 L 340.78125 4.507812 C 347.148438 4.507812 353.25 7.035156 357.753906 11.535156 C 362.253906 16.035156 364.78125 22.140625 364.78125 28.503906 L 364.78125 323.417969 C 364.78125 329.785156 362.253906 335.886719 357.753906 340.386719 C 353.25 344.890625 347.148438 347.417969 340.78125 347.417969 L 43.199219 347.417969 C 36.832031 347.417969 30.730469 344.890625 26.230469 340.386719 C 21.726562 335.886719 19.199219 329.785156 19.199219 323.417969 L 19.199219 28.503906 C 19.199219 22.140625 21.726562 16.035156 26.230469 11.535156 C 30.730469 7.035156 36.832031 4.507812 43.199219 4.507812 Z M 43.199219 4.507812 " clip-rule="nonzero"/></clipPath><clipPath id="358393916c"><path d="M 57.527344 66.769531 L 316.929688 66.769531 L 316.929688 289.988281 L 57.527344 289.988281 Z M 57.527344 66.769531 " clip-rule="nonzero"/></clipPath></defs><g clip-path="url(#c2966b436c)"><g clip-path="url(#d8ec652231)"><path stroke-linecap="butt" transform="matrix(2.657362, 0, 0, 2.657362, 19.200006, 33.667505)" fill="none" stroke-linejoin="miter" d="M 9.031218 0.0001746 L 121.015236 0.0001746 C 123.411292 0.0001746 125.70739 0.951247 127.402269 2.644656 C 129.095678 4.338065 130.04675 6.635633 130.04675 9.031689 L 130.04675 120.010245 C 130.04675 122.406301 129.095678 124.702399 127.402269 126.395808 C 125.70739 128.090687 123.411292 129.041759 121.015236 129.041759 L 9.031218 129.041759 C 6.635162 129.041759 4.339064 128.090687 2.645655 126.395808 C 0.950776 124.702399 -0.000296132 122.406301 -0.000296132 120.010245 L -0.000296132 9.031689 C -0.000296132 6.635633 0.950776 4.338065 2.645655 2.644656 C 4.339064 0.951247 6.635162 0.0001746 9.031218 0.0001746 Z M 9.031218 0.0001746 " stroke="#000000" stroke-width="3.386818" stroke-opacity="1" stroke-miterlimit="4"/></g></g><g clip-path="url(#81ef30d213)"><g clip-path="url(#fec623ab9b)"><path fill="#2151f4" d="M 19.199219 4.5 L 364.808594 4.5 L 364.808594 347.429688 L 19.199219 347.429688 Z M 19.199219 4.5 " fill-opacity="1" fill-rule="nonzero"/></g></g><g clip-path="url(#46de8902cf)"><g clip-path="url(#43f4d5ac4d)"><path stroke-linecap="butt" transform="matrix(2.657362, 0, 0, 2.657362, 19.200006, 4.506998)" fill="none" stroke-linejoin="miter" d="M 9.031218 0.0003064 L 121.015236 0.0003064 C 123.411292 0.0003064 125.70739 0.951379 127.402269 2.644788 C 129.095678 4.338197 130.04675 6.635765 130.04675 9.030351 L 130.04675 120.010377 C 130.04675 122.406433 129.095678 124.702531 127.402269 126.39594 C 125.70739 128.090819 123.411292 129.041891 121.015236 129.041891 L 9.031218 129.041891 C 6.635162 129.041891 4.339064 128.090819 2.645655 126.39594 C 0.950776 124.702531 -0.000296132 122.406433 -0.000296132 120.010377 L -0.000296132 9.030351 C -0.000296132 6.635765 0.950776 4.338197 2.645655 2.644788 C 4.339064 0.951379 6.635162 0.0003064 9.031218 0.0003064 Z M 9.031218 0.0003064 " stroke="#000000" stroke-width="3.386818" stroke-opacity="1" stroke-miterlimit="4"/></g></g><path fill="#12100b" d="M 138.328125 192.21875 L 156.863281 245.226562 L 166.285156 207.070312 C 166.5625 205.9375 167.132812 204.898438 167.929688 204.046875 L 216.785156 152.136719 L 138.328125 192.21875 " fill-opacity="1" fill-rule="nonzero"/><g clip-path="url(#358393916c)"><path fill="#12100b" d="M 302.496094 102.074219 L 270.375 260.6875 C 268.414062 270.363281 261.6875 276.617188 253.238281 276.617188 C 248.914062 276.617188 244.488281 274.953125 240.429688 271.808594 C 240.402344 271.785156 240.367188 271.757812 240.335938 271.734375 L 239.988281 271.453125 C 239.984375 271.449219 239.980469 271.449219 239.976562 271.445312 L 203.492188 242.070312 L 178.339844 265.226562 C 174.085938 269.144531 169.222656 271.214844 164.28125 271.214844 C 156.441406 271.214844 149.710938 265.890625 146.714844 257.316406 L 124.722656 194.429688 L 84.058594 182.792969 C 83.992188 182.773438 83.929688 182.753906 83.867188 182.734375 C 73.253906 179.359375 71.519531 173.488281 71.425781 170.289062 C 71.335938 167.09375 72.738281 161.132812 83.140625 157.164062 L 279.191406 82.324219 C 282.070312 81.226562 284.871094 80.667969 287.515625 80.667969 C 292.382812 80.667969 296.621094 82.574219 299.449219 86.035156 C 302.703125 90.011719 303.785156 95.707031 302.496094 102.074219 Z M 310.203125 77.230469 C 304.761719 70.589844 296.496094 66.773438 287.515625 66.773438 C 283.148438 66.773438 278.675781 67.640625 274.226562 69.34375 L 78.183594 144.179688 C 58.539062 151.679688 57.414062 166.363281 57.535156 170.675781 C 57.65625 175 59.617188 189.601562 80.234375 196.152344 L 113.980469 205.808594 L 133.597656 261.90625 C 138.523438 276.003906 150.570312 285.113281 164.28125 285.113281 C 172.765625 285.113281 180.882812 281.773438 187.753906 275.449219 L 204.101562 260.398438 C 204.101562 260.398438 231.726562 282.644531 231.960938 282.824219 C 238.464844 287.855469 245.820312 290.515625 253.238281 290.515625 C 268.351562 290.515625 280.710938 279.640625 283.996094 263.445312 L 316.117188 104.835938 C 318.246094 94.300781 316.148438 84.503906 310.203125 77.230469 " fill-opacity="1" fill-rule="nonzero"/></g><path fill="#12100b" d="M 287.515625 94.238281 C 286.839844 94.238281 285.683594 94.371094 284.027344 95.003906 L 88.042969 169.816406 L 129.261719 181.609375 L 245.453125 122.25 C 248.390625 120.75 251.984375 121.578125 253.96875 124.21875 C 255.949219 126.859375 255.742188 130.539062 253.480469 132.941406 L 182.835938 208.011719 L 207.433594 227.816406 C 207.441406 227.820312 207.449219 227.828125 207.453125 227.832031 L 248.792969 261.117188 C 250.40625 262.359375 251.984375 263.046875 253.238281 263.046875 C 255.777344 263.046875 256.761719 259.511719 257.074219 257.996094 L 289.195312 99.378906 C 289.765625 96.566406 289.304688 95.066406 288.945312 94.625 C 288.671875 94.289062 287.933594 94.238281 287.515625 94.238281 " fill-opacity="1" fill-rule="nonzero"/><path fill="#12100b" d="M 168.167969 256.054688 C 168.496094 255.8125 168.820312 255.542969 169.148438 255.246094 L 192.804688 233.460938 L 176.90625 220.660156 L 168.167969 256.054688 " fill-opacity="1" fill-rule="nonzero"/></svg>