<svg xmlns="http://www.w3.org/2000/svg" xmlns:xlink="http://www.w3.org/1999/xlink" width="512" zoomAndPan="magnify" viewBox="0 0 384 383.999986" height="512" preserveAspectRatio="xMidYMid meet" version="1.0"><defs><g/><clipPath id="6b4bfafb4e"><path d="M 17.367188 35.195312 L 366.488281 35.195312 L 366.488281 381.621094 L 17.367188 381.621094 Z M 17.367188 35.195312 " clip-rule="nonzero"/></clipPath><clipPath id="e3eaa4a433"><path d="M 41.367188 35.195312 L 342.613281 35.195312 C 348.980469 35.195312 355.082031 37.722656 359.582031 42.222656 C 364.085938 46.722656 366.613281 52.828125 366.613281 59.191406 L 366.613281 357.738281 C 366.613281 364.105469 364.085938 370.207031 359.582031 374.710938 C 355.082031 379.210938 348.980469 381.738281 342.613281 381.738281 L 41.367188 381.738281 C 35.003906 381.738281 28.898438 379.210938 24.398438 374.710938 C 19.898438 370.207031 17.367188 364.105469 17.367188 357.738281 L 17.367188 59.191406 C 17.367188 52.828125 19.898438 46.722656 24.398438 42.222656 C 28.898438 37.722656 35.003906 35.195312 41.367188 35.195312 Z M 41.367188 35.195312 " clip-rule="nonzero"/></clipPath><clipPath id="237d9e036b"><path d="M 17.367188 5.71875 L 366.640625 5.71875 L 366.640625 352.28125 L 17.367188 352.28125 Z M 17.367188 5.71875 " clip-rule="nonzero"/></clipPath><clipPath id="f6e411e18f"><path d="M 41.367188 5.71875 L 342.632812 5.71875 C 348.996094 5.71875 355.101562 8.246094 359.601562 12.746094 C 364.101562 17.246094 366.632812 23.351562 366.632812 29.71875 L 366.632812 328.28125 C 366.632812 334.644531 364.101562 340.75 359.601562 345.25 C 355.101562 349.75 348.996094 352.28125 342.632812 352.28125 L 41.367188 352.28125 C 35.003906 352.28125 28.898438 349.75 24.398438 345.25 C 19.898438 340.75 17.367188 334.644531 17.367188 328.28125 L 17.367188 29.71875 C 17.367188 23.351562 19.898438 17.246094 24.398438 12.746094 C 28.898438 8.246094 35.003906 5.71875 41.367188 5.71875 Z M 41.367188 5.71875 " clip-rule="nonzero"/></clipPath><clipPath id="f253082f18"><path d="M 17.367188 5.722656 L 366.488281 5.722656 L 366.488281 352.148438 L 17.367188 352.148438 Z M 17.367188 5.722656 " clip-rule="nonzero"/></clipPath><clipPath id="fa38c4cdfe"><path d="M 41.367188 5.722656 L 342.613281 5.722656 C 348.980469 5.722656 355.082031 8.253906 359.582031 12.753906 C 364.085938 17.253906 366.613281 23.359375 366.613281 29.722656 L 366.613281 328.269531 C 366.613281 334.636719 364.085938 340.738281 359.582031 345.238281 C 355.082031 349.742188 348.980469 352.269531 342.613281 352.269531 L 41.367188 352.269531 C 35.003906 352.269531 28.898438 349.742188 24.398438 345.238281 C 19.898438 340.738281 17.367188 334.636719 17.367188 328.269531 L 17.367188 29.722656 C 17.367188 23.359375 19.898438 17.253906 24.398438 12.753906 C 28.898438 8.253906 35.003906 5.722656 41.367188 5.722656 Z M 41.367188 5.722656 " clip-rule="nonzero"/></clipPath></defs><g clip-path="url(#6b4bfafb4e)"><g clip-path="url(#e3eaa4a433)"><path stroke-linecap="butt" transform="matrix(2.685527, 0, 0, 2.685527, 17.368455, 35.193769)" fill="none" stroke-linejoin="miter" d="M 8.936321 0.000574638 L 121.110236 0.000574638 C 123.481163 0.000574638 125.753179 0.941672 127.428828 2.617321 C 129.105931 4.29297 130.047029 6.566441 130.047029 8.935913 L 130.047029 120.10473 C 130.047029 122.475657 129.105931 124.747673 127.428828 126.424776 C 125.753179 128.100425 123.481163 129.041523 121.110236 129.041523 L 8.936321 129.041523 C 6.566849 129.041523 4.293378 128.100425 2.617729 126.424776 C 0.94208 124.747673 -0.000471954 122.475657 -0.000471954 120.10473 L -0.000471954 8.935913 C -0.000471954 6.566441 0.94208 4.29297 2.617729 2.617321 C 4.293378 0.941672 6.566849 0.000574638 8.936321 0.000574638 Z M 8.936321 0.000574638 " stroke="#000000" stroke-width="3.351297" stroke-opacity="1" stroke-miterlimit="4"/></g></g><g clip-path="url(#237d9e036b)"><g clip-path="url(#f6e411e18f)"><path fill="#2151f4" d="M 17.367188 5.71875 L 366.640625 5.71875 L 366.640625 352.28125 L 17.367188 352.28125 Z M 17.367188 5.71875 " fill-opacity="1" fill-rule="nonzero"/></g></g><g clip-path="url(#f253082f18)"><g clip-path="url(#fa38c4cdfe)"><path stroke-linecap="butt" transform="matrix(2.685527, 0, 0, 2.685527, 17.368455, 5.72422)" fill="none" stroke-linejoin="miter" d="M 8.936321 -0.000582238 L 121.110236 -0.000582238 C 123.481163 -0.000582238 125.753179 0.94197 127.428828 2.617619 C 129.105931 4.293267 130.047029 6.566739 130.047029 8.936211 L 130.047029 120.105028 C 130.047029 122.475954 129.105931 124.747971 127.428828 126.42362 C 125.753179 128.100723 123.481163 129.041821 121.110236 129.041821 L 8.936321 129.041821 C 6.566849 129.041821 4.293378 128.100723 2.617729 126.42362 C 0.94208 124.747971 -0.000471954 122.475954 -0.000471954 120.105028 L -0.000471954 8.936211 C -0.000471954 6.566739 0.94208 4.293267 2.617729 2.617619 C 4.293378 0.94197 6.566849 -0.000582238 8.936321 -0.000582238 Z M 8.936321 -0.000582238 " stroke="#000000" stroke-width="3.351297" stroke-opacity="1" stroke-miterlimit="4"/></g></g><path stroke-linecap="butt" transform="matrix(14.847057, 0, 0, 14.847057, 151.576562, -8.075244)" fill="none" stroke-linejoin="miter" d="M 4.222586 5.742211 C 3.839776 6.574131 3.585885 7.230563 3.281216 8.04696 C 3.120989 8.480548 2.878938 9.105409 2.656356 9.726586 C 2.414041 8.97649 2.222768 8.289012 1.968877 7.519446 C 1.375062 5.695379 1.32823 5.550674 1.089862 5.441488 C 0.894643 5.359401 0.527356 5.425702 0.480525 5.679593 C 0.449216 5.808512 0.718629 6.41785 0.769408 6.574131 L 0.976467 7.183469 C 1.121171 7.617056 1.265613 8.031174 1.406371 8.464762 L 2.222768 10.878961 C 2.16015 11.054711 2.113319 11.214939 2.06254 11.35938 C 1.792864 12.257864 1.679731 12.464923 1.359276 13.359461 C 1.199312 13.824094 1.054607 14.11324 0.863334 14.57419 C 0.718629 14.910168 0.511833 15.375065 0.593657 15.824175 C 0.687584 15.999925 1.007775 16.046757 1.105385 15.984403 C 1.441363 15.726565 1.80865 14.49605 1.968877 14.11324 C 2.015709 14.000108 2.398518 12.976652 2.671878 12.1913 L 3.120989 13.472594 C 3.390666 14.273468 3.679812 15.105388 4.046835 15.953094 C 4.144445 16.113321 4.734314 15.96888 4.718791 15.777343 C 4.527255 14.878859 4.113399 13.83988 3.824253 12.976652 C 3.617194 12.336005 3.343834 11.648526 3.089943 10.976571 C 3.37488 10.144651 3.710857 9.230381 4.000004 8.449239 C 4.28915 7.695197 4.433591 7.425783 4.831923 6.382857 L 4.929796 6.14449 C 5.105547 5.679593 4.433591 5.265738 4.222586 5.742211 Z M 4.222586 5.742211 " stroke="#000000" stroke-width="1.2" stroke-opacity="1" stroke-miterlimit="4"/><g fill="#ffffff" fill-opacity="1"><g transform="translate(151.576562, 229.477671)"><g><path d="M 62.714844 -152.269531 C 57.011719 -139.917969 53.210938 -130.179688 48.699219 -118.0625 C 46.324219 -111.648438 42.757812 -102.386719 39.433594 -93.121094 C 35.871094 -104.285156 33.019531 -114.5 29.21875 -125.902344 C 20.429688 -152.984375 19.71875 -155.121094 16.152344 -156.785156 C 13.304688 -157.972656 7.839844 -157.023438 7.125 -153.222656 C 6.652344 -151.320312 10.691406 -142.292969 11.402344 -139.917969 L 14.492188 -130.890625 C 16.628906 -124.476562 18.765625 -118.300781 20.90625 -111.886719 L 33.019531 -76.015625 C 32.070312 -73.402344 31.355469 -71.027344 30.644531 -68.890625 C 26.605469 -55.585938 24.941406 -52.5 20.191406 -39.195312 C 17.816406 -32.308594 15.679688 -28.03125 12.828125 -21.140625 C 10.691406 -16.152344 7.601562 -9.265625 8.789062 -2.613281 C 10.214844 0 14.964844 0.710938 16.390625 -0.238281 C 21.378906 -4.039062 26.84375 -22.328125 29.21875 -28.03125 C 29.933594 -29.695312 35.632812 -44.898438 39.671875 -56.539062 L 46.324219 -37.535156 C 50.359375 -25.65625 54.636719 -13.304688 60.101562 -0.710938 C 61.527344 1.664062 70.316406 -0.476562 70.078125 -3.324219 C 67.226562 -16.628906 61.050781 -32.070312 56.773438 -44.898438 C 53.6875 -54.398438 49.648438 -64.613281 45.847656 -74.589844 C 50.125 -86.945312 55.113281 -100.484375 59.386719 -112.125 C 63.664062 -123.289062 65.800781 -127.328125 71.742188 -142.769531 L 73.167969 -146.332031 C 75.78125 -153.222656 65.800781 -159.398438 62.714844 -152.269531 Z M 62.714844 -152.269531 "/></g></g></g></svg>