<svg xmlns="http://www.w3.org/2000/svg" xmlns:xlink="http://www.w3.org/1999/xlink" width="672" zoomAndPan="magnify" viewBox="0 0 504 359.999987" height="480" preserveAspectRatio="xMidYMid meet" version="1.0"><defs><clipPath id="1630b3fbab"><path d="M 6.617188 12.882812 L 497.53125 12.882812 L 497.53125 347.117188 L 6.617188 347.117188 Z M 6.617188 12.882812 " clip-rule="nonzero"/></clipPath><clipPath id="0e74190ce2"><path d="M 26.867188 12.882812 L 477.132812 12.882812 C 488.316406 12.882812 497.382812 21.945312 497.382812 33.132812 L 497.382812 326.867188 C 497.382812 338.054688 488.316406 347.117188 477.132812 347.117188 L 26.867188 347.117188 C 15.683594 347.117188 6.617188 338.054688 6.617188 326.867188 L 6.617188 33.132812 C 6.617188 21.945312 15.683594 12.882812 26.867188 12.882812 Z M 26.867188 12.882812 " clip-rule="nonzero"/></clipPath><clipPath id="fbc43a2a75"><path d="M 6.621094 12.882812 L 497.117188 12.882812 L 497.117188 347.382812 L 6.621094 347.382812 Z M 6.621094 12.882812 " clip-rule="nonzero"/></clipPath><clipPath id="e72f29cfde"><path d="M 26.871094 12.882812 L 477.125 12.882812 C 488.308594 12.882812 497.375 21.945312 497.375 33.128906 L 497.375 326.863281 C 497.375 338.046875 488.308594 347.113281 477.125 347.113281 L 26.871094 347.113281 C 15.6875 347.113281 6.621094 338.046875 6.621094 326.863281 L 6.621094 33.128906 C 6.621094 21.945312 15.6875 12.882812 26.871094 12.882812 Z M 26.871094 12.882812 " clip-rule="nonzero"/></clipPath></defs><g clip-path="url(#1630b3fbab)"><g clip-path="url(#0e74190ce2)"><path fill="#ffffff" d="M 6.617188 12.882812 L 497.53125 12.882812 L 497.53125 347.117188 L 6.617188 347.117188 Z M 6.617188 12.882812 " fill-opacity="1" fill-rule="nonzero"/></g></g><g clip-path="url(#fbc43a2a75)"><g clip-path="url(#e72f29cfde)"><path stroke-linecap="butt" transform="matrix(0.75, 0, 0, 0.75, 6.621094, 12.880886)" fill="none" stroke-linejoin="miter" d="M 27.000002 0.00256821 L 627.338591 0.00256821 C 642.250051 0.00256821 654.338593 12.085902 654.338593 26.997362 L 654.338593 418.643226 C 654.338593 433.554686 642.250051 445.643228 627.338591 445.643228 L 27.000002 445.643228 C 12.088543 445.643228 -0.0000000902266 433.554686 -0.0000000902266 418.643226 L -0.0000000902266 26.997362 C -0.0000000902266 12.085902 12.088543 0.00256821 27.000002 0.00256821 Z M 27.000002 0.00256821 " stroke="#000000" stroke-width="12" stroke-opacity="1" stroke-miterlimit="4"/></g></g></svg>