<svg xmlns="http://www.w3.org/2000/svg" xmlns:xlink="http://www.w3.org/1999/xlink" width="672" zoomAndPan="magnify" viewBox="0 0 504 359.999987" height="480" preserveAspectRatio="xMidYMid meet" version="1.0"><defs><clipPath id="bdb17c453a"><path d="M 6.617188 12.882812 L 497.777344 12.882812 L 497.777344 272.132812 L 6.617188 272.132812 Z M 6.617188 12.882812 " clip-rule="nonzero"/></clipPath><clipPath id="f78d8d9510"><path d="M 26.867188 12.882812 L 477.132812 12.882812 C 488.316406 12.882812 497.382812 21.945312 497.382812 33.132812 L 497.382812 251.882812 C 497.382812 263.066406 488.316406 272.132812 477.132812 272.132812 L 26.867188 272.132812 C 15.683594 272.132812 6.617188 263.066406 6.617188 251.882812 L 6.617188 33.132812 C 6.617188 21.945312 15.683594 12.882812 26.867188 12.882812 Z M 26.867188 12.882812 " clip-rule="nonzero"/></clipPath><clipPath id="bc1bd8e086"><path d="M 6.625 12.882812 L 497.117188 12.882812 L 497.117188 272.382812 L 6.625 272.382812 Z M 6.625 12.882812 " clip-rule="nonzero"/></clipPath><clipPath id="3cec067a0e"><path d="M 26.871094 12.882812 L 477.121094 12.882812 C 488.304688 12.882812 497.371094 21.945312 497.371094 33.128906 L 497.371094 251.875 C 497.371094 263.058594 488.304688 272.125 477.121094 272.125 L 26.871094 272.125 C 15.691406 272.125 6.625 263.058594 6.625 251.875 L 6.625 33.128906 C 6.625 21.945312 15.691406 12.882812 26.871094 12.882812 Z M 26.871094 12.882812 " clip-rule="nonzero"/></clipPath><clipPath id="ad8fab3cd8"><path d="M 6.617188 246.015625 L 497.527344 246.015625 L 497.527344 347.117188 L 6.617188 347.117188 Z M 6.617188 246.015625 " clip-rule="nonzero"/></clipPath><clipPath id="f6ed72658f"><path d="M 26.867188 246.015625 L 477.132812 246.015625 C 488.316406 246.015625 497.382812 255.082031 497.382812 266.265625 L 497.382812 326.867188 C 497.382812 338.054688 488.316406 347.117188 477.132812 347.117188 L 26.867188 347.117188 C 15.683594 347.117188 6.617188 338.054688 6.617188 326.867188 L 6.617188 266.265625 C 6.617188 255.082031 15.683594 246.015625 26.867188 246.015625 Z M 26.867188 246.015625 " clip-rule="nonzero"/></clipPath><clipPath id="40d85be59f"><path d="M 6.632812 246.015625 L 497.117188 246.015625 L 497.117188 347.265625 L 6.632812 347.265625 Z M 6.632812 246.015625 " clip-rule="nonzero"/></clipPath><clipPath id="e6176144da"><path d="M 26.878906 246.015625 L 477.113281 246.015625 C 488.296875 246.015625 497.363281 255.082031 497.363281 266.261719 L 497.363281 326.863281 C 497.363281 338.046875 488.296875 347.113281 477.113281 347.113281 L 26.878906 347.113281 C 15.699219 347.113281 6.632812 338.046875 6.632812 326.863281 L 6.632812 266.261719 C 6.632812 255.082031 15.699219 246.015625 26.878906 246.015625 Z M 26.878906 246.015625 " clip-rule="nonzero"/></clipPath></defs><g clip-path="url(#bdb17c453a)"><g clip-path="url(#f78d8d9510)"><path fill="#ffffff" d="M 6.617188 12.882812 L 497.777344 12.882812 L 497.777344 272.132812 L 6.617188 272.132812 Z M 6.617188 12.882812 " fill-opacity="1" fill-rule="nonzero"/></g></g><g clip-path="url(#bc1bd8e086)"><g clip-path="url(#3cec067a0e)"><path stroke-linecap="butt" transform="matrix(0.75, 0, 0, 0.75, 6.623647, 12.880886)" fill="none" stroke-linejoin="miter" d="M 26.9966 0.00256821 L 627.330019 0.00256821 C 642.241479 0.00256821 654.330023 12.085903 654.330023 26.997364 L 654.330023 318.658864 C 654.330023 333.570324 642.241479 345.653659 627.330019 345.653659 L 26.9966 345.653659 C 12.090347 345.653659 0.00180408 333.570324 0.00180408 318.658864 L 0.00180408 26.997364 C 0.00180408 12.085903 12.090347 0.00256821 26.9966 0.00256821 Z M 26.9966 0.00256821 " stroke="#000000" stroke-width="12" stroke-opacity="1" stroke-miterlimit="4"/></g></g><g clip-path="url(#ad8fab3cd8)"><g clip-path="url(#f6ed72658f)"><path fill="#ffffff" d="M 6.617188 246.015625 L 497.527344 246.015625 L 497.527344 347.117188 L 6.617188 347.117188 Z M 6.617188 246.015625 " fill-opacity="1" fill-rule="nonzero"/></g></g><g clip-path="url(#40d85be59f)"><g clip-path="url(#e6176144da)"><path stroke-linecap="butt" transform="matrix(0.75, 0, 0, 0.75, 6.631952, 246.014599)" fill="none" stroke-linejoin="miter" d="M 26.995941 0.00136801 L 627.308488 0.00136801 C 642.219948 0.00136801 654.30849 12.089911 654.30849 26.996162 L 654.30849 107.798252 C 654.30849 122.709711 642.219948 134.798254 627.308488 134.798254 L 26.995941 134.798254 C 12.08969 134.798254 0.00114715 122.709711 0.00114715 107.798252 L 0.00114715 26.996162 C 0.00114715 12.089911 12.08969 0.00136801 26.995941 0.00136801 Z M 26.995941 0.00136801 " stroke="#000000" stroke-width="12" stroke-opacity="1" stroke-miterlimit="4"/></g></g></svg>